<?xml version="1.0" standalone="no"?>
<!DOCTYPE svg PUBLIC "-//W3C//DTD SVG 20010904//EN"
 "http://www.w3.org/TR/2001/REC-SVG-20010904/DTD/svg10.dtd">
<svg version="1.0" xmlns="http://www.w3.org/2000/svg"
 width="2048.000000pt" height="2048.000000pt" viewBox="0 0 2048.000000 2048.000000"
 preserveAspectRatio="xMidYMid meet">

<g transform="translate(0.000000,2048.000000) scale(0.100000,-0.100000)"
fill="#000000" stroke="none">
<path d="M14022 15026 c-123 -117 -216 -327 -302 -679 -27 -111 -54 -228 -60
-259 -6 -32 -15 -58 -19 -58 -11 0 15 203 51 390 23 124 30 189 29 260 -3 160
-15 167 -85 49 -131 -219 -208 -525 -209 -824 l-1 -150 -21 90 c-21 91 -58
194 -81 228 -11 17 -13 16 -18 -10 -15 -76 -26 -210 -26 -330 0 -223 32 -407
113 -650 19 -56 31 -100 27 -98 -5 3 -59 89 -121 191 l-114 186 -3 -79 c-3
-90 19 -247 48 -332 25 -74 91 -209 158 -324 29 -49 52 -91 52 -94 0 -2 -26
14 -57 36 -67 48 -72 43 -53 -53 15 -76 73 -203 135 -292 78 -113 71 -109 117
-69 99 84 279 147 454 160 l89 7 -95 -49 c-134 -68 -172 -97 -321 -239 -261
-248 -370 -323 -598 -411 -223 -85 -546 -93 -874 -23 -328 71 -1192 371 -1687
585 -30 13 -118 51 -195 83 -206 88 -534 234 -700 312 -49 23 -128 59 -175 80
-47 21 -146 66 -220 100 -1017 466 -1504 647 -1997 744 -218 43 -301 53 -485
62 -727 33 -1348 -270 -1938 -946 -229 -263 -483 -634 -702 -1030 -153 -277
-451 -874 -568 -1142 -58 -130 -138 -320 -170 -403 -148 -378 -156 -400 -270
-725 -196 -563 -347 -1087 -466 -1615 -57 -253 -149 -722 -164 -840 -6 -49
-13 -92 -16 -94 -16 -17 -27 50 -50 319 -45 510 -45 1399 0 2030 8 113 20 279
26 370 6 91 24 314 40 495 102 1141 113 1565 50 1858 -34 155 -111 256 -214
277 -231 47 -376 -287 -576 -1335 -129 -674 -219 -1322 -259 -1860 -80 -1065
-25 -1912 170 -2626 59 -216 101 -319 182 -449 229 -366 484 -506 781 -430
222 56 379 241 476 557 39 126 127 504 180 776 17 87 35 170 41 185 10 26 11
27 26 7 8 -11 31 -51 50 -90 201 -397 673 -832 1168 -1075 345 -170 692 -185
781 -34 30 52 42 140 25 199 -18 66 -63 108 -209 196 -166 99 -245 160 -371
282 -307 297 -603 704 -828 1136 -79 152 -126 267 -219 539 l-84 244 115 345
c141 419 191 559 344 953 140 362 340 813 467 1055 214 408 330 603 511 863
153 218 276 366 468 558 194 194 352 321 536 430 479 283 1008 371 1654 276
456 -68 992 -231 1830 -557 66 -26 176 -68 245 -95 69 -26 179 -69 245 -95
977 -380 1764 -629 2295 -725 391 -71 566 -85 965 -77 317 6 400 15 659 73
129 28 399 109 500 150 16 6 17 4 7 -13 -25 -48 -122 -141 -202 -193 l-87 -57
62 -74 c56 -67 174 -169 196 -169 4 0 2 25 -7 56 -8 31 -12 58 -10 60 2 2 36
-38 75 -89 78 -103 126 -151 224 -223 64 -47 249 -144 276 -144 17 0 25 -12
-102 157 -49 65 -94 125 -100 133 -14 19 66 -44 85 -66 26 -32 169 -133 252
-178 45 -25 124 -61 176 -81 99 -39 282 -88 291 -78 7 7 -57 61 -165 138 -127
90 -135 104 -23 43 178 -97 330 -160 498 -204 94 -26 284 -24 365 2 l60 20
-58 22 c-32 12 -114 33 -183 47 -112 22 -280 76 -344 111 -40 21 -3 17 125
-15 194 -50 314 -65 495 -66 158 0 254 12 290 35 27 18 -24 47 -157 90 -101
32 -140 40 -202 40 -42 0 -114 7 -161 15 -159 28 -156 33 23 34 207 1 337 15
439 47 80 25 136 62 124 82 -7 11 -125 52 -223 76 -46 11 -88 14 -158 9 -69
-4 -95 -3 -95 5 0 7 15 12 34 12 100 0 296 58 427 126 l54 28 -245 12 c-291
14 -407 25 -639 65 -463 77 -874 251 -1176 494 l-70 57 -71 -5 c-60 -3 -86
-11 -153 -45 -98 -51 -107 -37 -28 42 81 81 132 96 310 93 136 -2 145 -1 207
26 56 25 84 30 197 36 122 6 134 9 158 31 l27 25 -48 7 c-27 4 -56 16 -68 27
l-20 21 21 21 c25 25 90 38 146 28 34 -5 37 -4 37 18 0 45 -29 84 -78 105 -26
11 -67 39 -92 62 -201 186 -433 240 -679 157 -52 -18 -100 -30 -106 -27 -20 7
-76 154 -96 249 -61 299 -16 694 137 1202 72 237 179 553 265 777 16 43 29 80
29 83 0 4 -28 -9 -62 -27 -107 -56 -233 -199 -343 -390 -21 -37 -41 -65 -43
-63 -8 8 39 128 81 204 43 79 88 256 106 415 12 108 10 111 -51 80 -171 -87
-312 -325 -440 -744 l-39 -125 5 82 c6 86 41 257 82 400 19 66 25 116 30 261
5 131 4 181 -5 186 -6 4 -35 -15 -69 -48z"/>
<path d="M9055 12117 c105 -52 366 -188 580 -304 635 -342 981 -515 1305 -655
392 -169 769 -294 1073 -357 296 -61 342 -66 632 -66 257 1 276 2 400 28 242
52 436 130 613 247 52 34 92 63 90 65 -2 1 -54 -8 -117 -21 -313 -63 -690 -56
-1161 22 -359 60 -922 211 -1435 384 -197 67 -257 88 -575 203 -69 25 -318
118 -555 207 -236 89 -502 186 -590 216 -174 60 -396 124 -429 124 -12 0 65
-42 169 -93z"/>
<path d="M9335 10841 c-72 -33 -141 -97 -202 -188 -117 -176 -194 -407 -279
-844 -31 -157 -60 -292 -64 -299 -5 -9 -45 -16 -117 -21 -215 -16 -424 -92
-531 -192 -44 -42 -56 -61 -74 -120 -60 -198 56 -357 317 -431 72 -21 302 -66
334 -66 4 0 11 -237 14 -527 13 -1037 50 -1347 223 -1876 30 -93 70 -200 89
-238 48 -95 139 -220 229 -316 301 -320 755 -396 1078 -180 301 201 451 540
465 1054 7 261 -20 443 -74 497 -44 44 -130 38 -181 -14 -31 -31 -96 -157
-139 -269 -48 -126 -120 -267 -168 -326 -106 -132 -138 -137 -201 -30 -65 111
-108 261 -153 530 -40 237 -48 310 -62 560 -16 275 -18 1071 -2 1105 l11 25
123 -6 c291 -15 552 44 656 148 109 109 102 248 -19 364 -58 55 -226 144 -357
189 -52 18 -153 43 -225 56 -86 15 -135 29 -143 39 -12 18 -17 88 -33 475 -14
352 -29 468 -81 608 -54 148 -141 258 -236 298 -46 20 -150 17 -198 -5z"/>
<path d="M18337 10720 c-106 -41 -217 -158 -292 -310 -170 -339 -275 -1029
-275 -1800 0 -270 67 -1415 110 -1885 34 -363 77 -560 157 -722 139 -277 492
-526 708 -499 118 15 205 68 246 149 17 32 20 54 17 108 -4 80 -19 101 -108
148 -63 34 -115 86 -137 138 -21 52 -50 184 -73 338 -43 281 -45 1321 -5 1930
22 328 71 884 101 1130 57 481 65 573 53 685 -29 297 -130 514 -271 584 -64
32 -158 35 -231 6z"/>
<path d="M12905 9295 c-174 -28 -302 -57 -480 -107 -375 -105 -518 -175 -594
-289 -108 -161 -31 -305 198 -373 46 -14 117 -16 465 -16 226 0 417 -4 424 -8
9 -6 1 -24 -29 -68 -147 -209 -251 -352 -374 -514 -246 -326 -528 -725 -809
-1143 -267 -398 -363 -652 -327 -861 43 -246 193 -397 458 -463 95 -24 439
-24 613 0 153 21 437 72 516 93 436 112 521 150 582 253 65 111 4 252 -135
312 -137 59 -560 119 -833 119 -173 0 -320 11 -320 25 0 31 297 426 444 590
140 156 397 437 471 515 250 262 481 524 598 679 102 136 203 330 242 466 59
203 25 390 -100 547 -89 113 -202 185 -352 225 -90 24 -118 26 -333 29 -171 2
-260 -1 -325 -11z"/>
<path d="M16602 9110 c-233 -19 -407 -68 -600 -167 -257 -132 -465 -288 -702
-525 -283 -283 -500 -585 -722 -1003 -186 -351 -315 -668 -364 -894 -21 -98
-29 -330 -15 -436 29 -215 180 -390 396 -458 89 -27 256 -29 355 -3 351 93
643 352 1000 886 91 136 316 504 355 580 10 19 19 37 22 40 11 12 23 -32 23
-91 1 -395 105 -828 263 -1089 74 -123 182 -231 275 -278 70 -34 83 -37 161
-37 70 0 94 4 128 23 127 67 184 176 134 258 -10 16 -46 48 -80 70 -74 48 -86
70 -117 223 -35 171 -53 353 -63 616 -8 213 -1 707 14 955 16 270 25 765 15
854 -10 87 -9 97 10 133 25 47 27 140 4 189 -23 49 -85 98 -163 129 -77 32
-167 38 -329 25z m-428 -933 c-24 -80 -349 -650 -504 -882 -252 -380 -574
-785 -622 -785 -47 0 109 389 270 675 127 226 361 550 503 699 116 123 341
326 352 319 4 -2 5 -14 1 -26z"/>
<path d="M6626 9030 c-377 -60 -753 -355 -998 -786 -86 -150 -181 -388 -227
-569 -52 -204 -62 -562 -23 -777 75 -408 277 -760 561 -974 210 -158 567 -288
831 -301 331 -16 700 104 952 309 244 199 369 373 423 591 23 92 26 125 23
218 -3 107 -4 112 -31 135 -21 18 -40 24 -76 24 -41 0 -60 -8 -127 -51 -44
-29 -124 -86 -178 -127 -223 -168 -404 -269 -571 -317 -112 -33 -273 -38 -374
-11 -233 62 -526 278 -609 447 -39 81 -42 115 -9 104 52 -17 167 -17 243 0
122 27 387 121 472 167 318 172 552 408 700 705 78 155 97 237 97 418 0 129
-3 160 -23 225 -33 106 -98 205 -192 293 -206 194 -400 275 -670 282 -74 2
-161 0 -194 -5z m109 -659 c64 -30 97 -72 103 -131 21 -216 -248 -513 -516
-569 -77 -16 -167 -14 -182 4 -31 37 75 321 170 459 64 93 172 195 243 230 61
31 125 33 182 7z"/>
</g>
</svg>
